{"title":"Dj Casper - Where The Rabbit Hole Goes","uid":5314204,"size":45638941,"categoryP":"audio","categoryS":"music","magnet":"?xt=urn:btih:6cc84177d355d380eea1adb70bfc71b0e379ed35&amp;dn=Dj+Casper+-+Where+The+Rabbit+Hole+Goes&amp;tr=udp%3A%2F%2Ftracker.openbittorrent.com%3A80&amp;tr=udp%3A%2F%2Fopen.demonii.com%3A1337&amp;tr=udp%3A%2F%2Ftracker.coppersurfer.tk%3A6969&amp;tr=udp%3A%2F%2Fexodus.desync.com%3A6969","seeders":1,"leechers":0,"uploader":"xXxghostmanxXx","files":12,"time":1264657636,"description":"[center][img=&quot;dj\n[b]\nGeneral \nComplete name : C:UsersCasperMusicDj Casper - Where The Rabbit Hole GoesTrack 01 - Dj Casper - Where The Rabbit Hole Goes - Can't Escpae.mp3 \nFormat : MPEG Audio \nFile size : 3.08 MiB \nDuration : 5mn 22s \nOverall bit rate : 80.0 Kbps \nAlbum : Where The Rabbit Hole Goes \nTrack name/Position : 2 \nAccompaniment : Dj Casper \nGenre : Techno \nRecorded date : 2010 \n\nAudio \nFormat : MPEG Audio \nFormat version : Version 2 \nFormat profile : Layer 3 \nFormat_Settings_Mode : Joint stereo / Intensity Stereo \nDuration : 5mn 22s \nBit rate mode : Constant \nBit rate : 80.0 Kbps \nChannel(s) : 2 channels \nSampling rate : 22.05 KHz \nResolution : 16 bits \nStream size : 3.07 MiB (100%) \n\nGeneral \nComplete name : C:UsersCasperMusicDj Casper - Where The Rabbit Hole GoesTrack 02 - Dj Casper - Where The Rabbit Hole Goes - My Own Way.mp3 \nFormat : MPEG Audio \nFile size : 4.14 MiB \nDuration : 7mn 13s \nOverall bit rate : 80.0 Kbps \nAlbum : Where The Rabbit Hole Goes \nTrack name/Position : 3 \nAccompaniment : Dj Casper \nGenre : Techno \nRecorded date : 2010 \n\nAudio \nFormat : MPEG Audio \nFormat version : Version 2 \nFormat profile : Layer 3 \nFormat_Settings_Mode : Joint stereo / Intensity Stereo \nDuration : 7mn 13s \nBit rate mode : Constant \nBit rate : 80.0 Kbps \nChannel(s) : 2 channels \nSampling rate : 22.05 KHz \nResolution : 16 bits \nStream size : 4.13 MiB (100%) \n\nGeneral \nComplete name : C:UsersCasperMusicDj Casper - Where The Rabbit Hole GoesTrack 03 - Dj Casper - Where The Rabbit Hole Goes - i Stand Alone.mp3 \nFormat : MPEG Audio \nFile size : 3.76 MiB \nDuration : 6mn 33s \nOverall bit rate : 80.0 Kbps \nAlbum : Where The Rabbit Hole Goes \nTrack name/Position : 4 \nAccompaniment : Dj Casper \nGenre : Techno \nRecorded date : 2010 \n\nAudio \nFormat : MPEG Audio \nFormat version : Version 2 \nFormat profile : Layer 3 \nFormat_Settings_Mode : Joint stereo / Intensity Stereo \nDuration : 6mn 33s \nBit rate mode : Constant \nBit rate : 80.0 Kbps \nChannel(s) : 2 channels \nSampling rate : 22.05 KHz \nResolution : 16 bits \nStream size : 3.76 MiB (100%) \n\nGeneral \nComplete name : C:UsersCasperMusicDj Casper - Where The Rabbit Hole GoesTrack 04 - Dj Casper - Where The Rabbit Hole Goes - Fantasy.mp3 \nFormat : MPEG Audio \nFile size : 3.33 MiB \nDuration : 5mn 48s \nOverall bit rate : 80.0 Kbps \nAlbum : Where The Rabbit Hole Goes \nTrack name/Position : 5 \nAccompaniment : Dj Casper \nGenre : Techno \nRecorded date : 2010 \n\nAudio \nFormat : MPEG Audio \nFormat version : Version 2 \nFormat profile : Layer 3 \nFormat_Settings_Mode : Joint stereo / Intensity Stereo \nDuration : 5mn 48s \nBit rate mode : Constant \nBit rate : 80.0 Kbps \nChannel(s) : 2 channels \nSampling rate : 22.05 KHz \nResolution : 16 bits \nStream size : 3.32 MiB (100%) \n\nGeneral \nComplete name : C:UsersCasperMusicDj Casper - Where The Rabbit Hole GoesTrack 05 - Dj Casper - Where The Rabbit Hole Goes - Let Me Go.mp3 \nFormat : MPEG Audio \nFile size : 3.63 MiB \nDuration : 6mn 20s \nOverall bit rate : 80.0 Kbps \nAlbum : Where The Rabbit Hole Goes \nTrack name/Position : 6 \nAccompaniment : Dj Casper \nGenre : Techno \nRecorded date : 2010 \n\nAudio \nFormat : MPEG Audio \nFormat version : Version 2 \nFormat profile : Layer 3 \nFormat_Settings_Mode : Joint stereo \nDuration : 6mn 20s \nBit rate mode : Constant \nBit rate : 80.0 Kbps \nChannel(s) : 2 channels \nSampling rate : 22.05 KHz \nResolution : 16 bits \nStream size : 3.63 MiB (100%) \n\nGeneral \nComplete name : C:UsersCasperMusicDj Casper - Where The Rabbit Hole GoesTrack 06 - Dj Casper - Where The Rabbit Hole Goes - Lose Control.mp3 \nFormat : MPEG Audio \nFile size : 3.08 MiB \nDuration : 5mn 22s \nOverall bit rate : 80.0 Kbps \nAlbum : Where The Rabbit Hole Goes \nTrack name/Position : 7 \nAccompaniment : Dj Casper \nGenre : Techno \nRecorded date : 2010 \n\nAudio \nFormat : MPEG Audio \nFormat version : Version 2 \nFormat profile : Layer 3 \nFormat_Settings_Mode : Joint stereo / Intensity Stereo \nDuration : 5mn 22s \nBit rate mode : Constant \nBit rate : 80.0 Kbps \nChannel(s) : 2 channels \nSampling rate : 22.05 KHz \nResolution : 16 bits \nStream size : 3.07 MiB (100%) \n\nGeneral \nComplete name : C:UsersCasperMusicDj Casper - Where The Rabbit Hole GoesTrack 07 - Dj Casper - Where The Rabbit Hole Goes - My Property.mp3 \nFormat : MPEG Audio \nFile size : 3.75 MiB \nDuration : 6mn 32s \nOverall bit rate : 80.0 Kbps \nAlbum : Where The Rabbit Hole Goes \nTrack name/Position : 8 \nAccompaniment : Dj Casper \nGenre : Techno \nRecorded date : 2010 \n\nAudio \nFormat : MPEG Audio \nFormat version : Version 2 \nFormat profile : Layer 3 \nFormat_Settings_Mode : Joint stereo \nDuration : 6mn 32s \nBit rate mode : Constant \nBit rate : 80.0 Kbps \nChannel(s) : 2 channels \nSampling rate : 22.05 KHz \nResolution : 16 bits \nStream size : 3.74 MiB (100%) \n\nGeneral \nComplete name : C:UsersCasperMusicDj Casper - Where The Rabbit Hole GoesTrack 08 - Dj Casper - Where The Rabbit Hole Goes - Drowning.mp3 \nFormat : MPEG Audio \nFile size : 2.95 MiB \nDuration : 5mn 8s \nOverall bit rate : 80.0 Kbps \nAlbum : Where The Rabbit Hole Goes \nTrack name/Position : 9 \nAccompaniment : Dj Casper \nGenre : Techno \nRecorded date : 2010 \n\nAudio \nFormat : MPEG Audio \nFormat version : Version 2 \nFormat profile : Layer 3 \nFormat_Settings_Mode : Joint stereo / Intensity Stereo \nDuration : 5mn 8s \nBit rate mode : Constant \nBit rate : 80.0 Kbps \nChannel(s) : 2 channels \nSampling rate : 22.05 KHz \nResolution : 16 bits \nStream size : 2.94 MiB (100%) \n\nGeneral \nComplete name : C:UsersCasperMusicDj Casper - Where The Rabbit Hole GoesTrack 09 - Dj Casper - Where The Rabbit Hole Goes - All I Need.mp3 \nFormat : MPEG Audio \nFile size : 3.88 MiB \nDuration : 6mn 46s \nOverall bit rate : 80.0 Kbps \nAlbum : Where The Rabbit Hole Goes \nTrack name/Position : 10 \nAccompaniment : Dj Casper \nGenre : Techno \nRecorded date : 2010 \n\nAudio \nFormat : MPEG Audio \nFormat version : Version 2 \nFormat profile : Layer 3 \nFormat_Settings_Mode : Joint stereo / Intensity Stereo \nDuration : 6mn 46s \nBit rate mode : Constant \nBit rate : 80.0 Kbps \nChannel(s) : 2 channels \nSampling rate : 22.05 KHz \nResolution : 16 bits \nStream size : 3.88 MiB (100%) \n\nGeneral \nComplete name : C:UsersCasperMusicDj Casper - Where The Rabbit Hole GoesTrack 10 - Dj Casper - Where The Rabbit Hole Goes - Overdrive.mp3 \nFormat : MPEG Audio \nFile size : 3.48 MiB \nDuration : 6mn 4s \nOverall bit rate : 80.0 Kbps \nAlbum : Where The Rabbit Hole Goes \nTrack name/Position : 11 \nAccompaniment : Dj Casper \nGenre : Techno \nRecorded date : 2010 \n\nAudio \nFormat : MPEG Audio \nFormat version : Version 2 \nFormat profile : Layer 3 \nFormat_Settings_Mode : Joint stereo / Intensity Stereo \nDuration : 6mn 4s \nBit rate mode : Constant \nBit rate : 80.0 Kbps \nChannel(s) : 2 channels \nSampling rate : 22.05 KHz \nResolution : 16 bits \nStream size : 3.48 MiB (100%) \n\nGeneral \nComplete name : C:UsersCasperMusicDj Casper - Where The Rabbit Hole GoesTrack 11 - Dj Casper - Where The Rabbit Hole Goes - Over Me.mp3 \nFormat : MPEG Audio \nFile size : 4.31 MiB \nDuration : 7mn 31s \nOverall bit rate : 80.0 Kbps \nAlbum : Where The Rabbit Hole Goes \nTrack name/Position : 12 \nAccompaniment : Dj Casper \nGenre : Techno \nRecorded date : 2010 \n\nAudio \nFormat : MPEG Audio \nFormat version : Version 2 \nFormat profile : Layer 3 \nFormat_Settings_Mode : Joint stereo / Intensity Stereo \nDuration : 7mn 31s \nBit rate mode : Constant \nBit rate : 80.0 Kbps \nChannel(s) : 2 channels \nSampling rate : 22.05 KHz \nResolution : 16 bits \nStream size : 4.31 MiB (100%) \n\nGeneral \nComplete name : C:UsersCasperMusicDj Casper - Where The Rabbit Hole GoesTrack 12 - Dj Casper - Where The Rabbit Hole Goes - Don't Do It To Me.mp3 \nFormat : MPEG Audio \nFile size : 4.15 MiB \nDuration : 7mn 14s \nOverall bit rate : 80.0 Kbps \nAlbum : Where The Rabbit Hole Goes \nTrack name/Position : 13 \nAccompaniment : Dj Casper \nGenre : Techno \nRecorded date : 2010 \n\nAudio \nFormat : MPEG Audio \nFormat version : Version 2 \nFormat profile : Layer 3 \nFormat_Settings_Mode : Joint stereo / Intensity Stereo \nDuration : 7mn 14s \nBit rate mode : Constant \nBit rate : 80.0 Kbps \nChannel(s) : 2 channels \nSampling rate : 22.05 KHz \nResolution : 16 bits \nStream size : 4.14 MiB (100%) \n\n\n[/b]\n[img=me]\n[color=red][size=7]Produced and Mixed by Me Dj Casper (aka Ghostman)[/size][/color]\n[img=group]http://leetleech.org/images/69773221966352511978.gif[/img]","torrent":{"xt":"urn:btih:6cc84177d355d380eea1adb70bfc71b0e379ed35","amp;dn":"Dj+Casper+-+Where+The+Rabbit+Hole+Goes","amp;tr":["udp%3A%2F%2Ftracker.openbittorrent.com%3A80","udp%3A%2F%2Fopen.demonii.com%3A1337","udp%3A%2F%2Ftracker.coppersurfer.tk%3A6969","udp%3A%2F%2Fexodus.desync.com%3A6969"],"infoHash":"6cc84177d355d380eea1adb70bfc71b0e379ed35","infoHashBuffer":{"type":"Buffer","data":[108,200,65,119,211,85,211,128,238,161,173,183,11,252,113,176,227,121,237,53]},"announce":[],"urlList":[]}}